<svg width="118" height="39" viewBox="0 0 118 39" fill="none" xmlns="http://www.w3.org/2000/svg">
<path d="M27.8682 22.5949L29.3928 30.7627L21.2491 26.6305L13.2263 31L14.6366 21.9754L8 15.6968L15.7988 14.4468L17.0202 14.2491L20.9416 6L25.1046 14.1305L34.1621 15.308L27.7166 21.7821L27.8682 22.5949Z" fill="#F7C93F"/>
<path d="M26.1283 21.2922L27.4003 28.1024L21.2228 24.9697L15.1375 28.2847L16.2074 21.4394L11.1766 16.6767L18.0176 15.5782L20.9899 9.32165L24.149 15.4882L31.0185 16.3823L26.1283 21.2922Z" fill="#F7E33F"/>
<path opacity="0.2" d="M27.7165 21.7821L27.8681 22.5949C27.38 22.6674 26.8874 22.7056 26.394 22.7091H26.2995C23.8753 22.7127 21.5205 21.8993 19.6153 20.4002C17.7101 18.9011 16.3656 16.8039 15.7986 14.4468L17.0201 14.2491L20.9414 6L25.1044 14.1283L34.162 15.3058L27.7165 21.7821Z" fill="white"/>
<rect x="1" y="2" width="116" height="36" rx="18" stroke="#3E87FF" stroke-width="2"/>
<line x1="25.9645" y1="2" x2="28.9645" y2="2" stroke="#CAF9FF" stroke-width="3"/>
<line x1="18.9645" y1="2" x2="21.9645" y2="2" stroke="#CAF9FF" stroke-width="3"/>
</svg>
